<mxfile host="app.diagrams.net" modified="2021-08-24T09:58:45.115Z" agent="5.0 (Macintosh; Intel Mac OS X 10_15_7) AppleWebKit/537.36 (KHTML, like Gecko) Chrome/92.0.4515.159 Safari/537.36" etag="4rac3uPaLe7frdPoXF3e" version="14.9.6" type="github">
  <diagram id="i0Af82ZyTuMwnxjFkq-9" name="Page-1">
    <mxGraphModel dx="2066" dy="1129" grid="1" gridSize="10" guides="1" tooltips="1" connect="1" arrows="1" fold="1" page="1" pageScale="1" pageWidth="827" pageHeight="1169" math="0" shadow="0">
      <root>
        <mxCell id="0" />
        <mxCell id="1" parent="0" />
        <mxCell id="JeUtmd3OCTLK-V0aQEGP-1" value="Welcome back. I can tell you the result of the football match last night. Italy won." style="rounded=1;whiteSpace=wrap;html=1;" vertex="1" parent="1">
          <mxGeometry x="320" y="200" width="330" height="40" as="geometry" />
        </mxCell>
        <mxCell id="JeUtmd3OCTLK-V0aQEGP-2" value="What?" style="rounded=1;whiteSpace=wrap;html=1;" vertex="1" parent="1">
          <mxGeometry x="320" y="280" width="330" height="60" as="geometry" />
        </mxCell>
        <mxCell id="JeUtmd3OCTLK-V0aQEGP-3" value="What?" style="rounded=1;whiteSpace=wrap;html=1;" vertex="1" parent="1">
          <mxGeometry x="320" y="380" width="330" height="60" as="geometry" />
        </mxCell>
        <mxCell id="JeUtmd3OCTLK-V0aQEGP-8" value="&lt;font color=&quot;#00cc66&quot;&gt;Normal&lt;/font&gt;， speakerA&amp;nbsp; doesn&#39;t care about football games" style="text;html=1;strokeColor=none;fillColor=none;align=left;verticalAlign=middle;whiteSpace=wrap;rounded=0;" vertex="1" parent="1">
          <mxGeometry x="320" y="250" width="330" height="20" as="geometry" />
        </mxCell>
        <mxCell id="JeUtmd3OCTLK-V0aQEGP-9" value="speakerA" style="text;html=1;strokeColor=none;fillColor=none;align=center;verticalAlign=middle;whiteSpace=wrap;rounded=0;" vertex="1" parent="1">
          <mxGeometry x="240" y="210" width="40" height="20" as="geometry" />
        </mxCell>
        <mxCell id="JeUtmd3OCTLK-V0aQEGP-11" value="speakerB" style="text;html=1;strokeColor=none;fillColor=none;align=center;verticalAlign=middle;whiteSpace=wrap;rounded=0;" vertex="1" parent="1">
          <mxGeometry x="240" y="300" width="40" height="20" as="geometry" />
        </mxCell>
        <mxCell id="JeUtmd3OCTLK-V0aQEGP-12" value="speakerC" style="text;html=1;strokeColor=none;fillColor=none;align=center;verticalAlign=middle;whiteSpace=wrap;rounded=0;" vertex="1" parent="1">
          <mxGeometry x="240" y="420" width="40" height="20" as="geometry" />
        </mxCell>
        <mxCell id="JeUtmd3OCTLK-V0aQEGP-13" value="&lt;font color=&quot;#00cc66&quot;&gt;Surprise&lt;/font&gt;， speakerB supports Italy." style="text;html=1;strokeColor=none;fillColor=none;align=left;verticalAlign=middle;whiteSpace=wrap;rounded=0;" vertex="1" parent="1">
          <mxGeometry x="320" y="350" width="330" height="20" as="geometry" />
        </mxCell>
        <mxCell id="JeUtmd3OCTLK-V0aQEGP-14" value="&lt;font color=&quot;#00cc66&quot;&gt;Angry&lt;/font&gt;， speakerC is an England fan." style="text;html=1;strokeColor=none;fillColor=none;align=left;verticalAlign=middle;whiteSpace=wrap;rounded=0;" vertex="1" parent="1">
          <mxGeometry x="320" y="450" width="330" height="20" as="geometry" />
        </mxCell>
      </root>
    </mxGraphModel>
  </diagram>
</mxfile>
